<svg xmlns="http://www.w3.org/2000/svg" width="1200" height="630" viewBox="0 0 1200 630" role="img" aria-label="Honeydeck social card">
  <defs>
    <linearGradient id="bg" x1="0" x2="1" y1="0" y2="1">
      <stop offset="0" stop-color="#fff7d6"/>
      <stop offset="0.55" stop-color="#ffd84d"/>
      <stop offset="1" stop-color="#1f1a0a"/>
    </linearGradient>
    <filter id="shadow" x="-20%" y="-20%" width="140%" height="140%">
      <feDropShadow dx="0" dy="18" stdDeviation="18" flood-color="#000" flood-opacity="0.25"/>
    </filter>
  </defs>
  <rect width="1200" height="630" fill="url(#bg)"/>
  <circle cx="930" cy="300" r="165" fill="#fffbe8" opacity="0.76"/>
  <g filter="url(#shadow)" transform="translate(820 165)">
    <ellipse cx="95" cy="145" rx="83" ry="105" fill="#f6b91b"/>
    <path d="M37 105c35 22 80 24 121 0" stroke="#1e1a10" stroke-width="26" stroke-linecap="round"/>
    <path d="M31 169c43 22 88 22 132 0" stroke="#1e1a10" stroke-width="26" stroke-linecap="round"/>
    <circle cx="65" cy="106" r="13" fill="#1e1a10"/>
    <circle cx="125" cy="106" r="13" fill="#1e1a10"/>
    <path d="M75 136q20 20 40 0" stroke="#1e1a10" stroke-width="9" fill="none" stroke-linecap="round"/>
    <ellipse cx="35" cy="77" rx="45" ry="66" fill="#d9f1ff" opacity="0.76" transform="rotate(-28 35 77)"/>
    <ellipse cx="154" cy="77" rx="45" ry="66" fill="#d9f1ff" opacity="0.76" transform="rotate(28 154 77)"/>
    <path d="M58 40 35 8M133 40l23-32" stroke="#1e1a10" stroke-width="9" stroke-linecap="round"/>
  </g>
  <text x="92" y="190" font-family="Inter, ui-sans-serif, system-ui" font-size="76" font-weight="900" fill="#1f1a0a">Honeydeck</text>
  <text x="92" y="280" font-family="Inter, ui-sans-serif, system-ui" font-size="56" font-weight="800" fill="#1f1a0a">MDX + React slide decks</text>
  <text x="92" y="350" font-family="Inter, ui-sans-serif, system-ui" font-size="34" font-weight="600" fill="#3d3210">Fast for developers. Friendly to AI agents.</text>
  <rect x="92" y="415" rx="24" width="425" height="72" fill="#1f1a0a" opacity="0.94"/>
  <text x="122" y="463" font-family="ui-monospace, SFMono-Regular, Menlo, monospace" font-size="30" font-weight="700" fill="#ffd84d">npx @honeydeck/honeydeck init</text>
</svg>
